<mxfile host="app.diagrams.net" modified="2021-11-29T07:26:54.423Z" agent="5.0 (Windows NT 10.0; Win64; x64) AppleWebKit/537.36 (KHTML, like Gecko) Chrome/96.0.4664.45 Safari/537.36" etag="t5YimkTKg6Sh_Vnsjyzc" version="15.8.6" type="github">
  <diagram id="C5RBs43oDa-KdzZeNtuy" name="ModelResume">
    <mxGraphModel dx="964" dy="587" grid="1" gridSize="10" guides="1" tooltips="1" connect="1" arrows="1" fold="1" page="1" pageScale="1" pageWidth="1169" pageHeight="827" background="none" math="0" shadow="0">
      <root>
        <mxCell id="WIyWlLk6GJQsqaUBKTNV-0" />
        <mxCell id="WIyWlLk6GJQsqaUBKTNV-1" parent="WIyWlLk6GJQsqaUBKTNV-0" />
        <mxCell id="dTCALStiIMGlmmFK-H2M-1" value="Resume" style="swimlane;fontStyle=1;align=center;verticalAlign=top;childLayout=stackLayout;horizontal=1;startSize=26;horizontalStack=0;resizeParent=1;resizeParentMax=0;resizeLast=0;collapsible=1;marginBottom=0;" parent="WIyWlLk6GJQsqaUBKTNV-1" vertex="1">
          <mxGeometry x="365" y="76" width="335" height="236" as="geometry">
            <mxRectangle x="90" y="280" width="80" height="26" as="alternateBounds" />
          </mxGeometry>
        </mxCell>
        <mxCell id="dTCALStiIMGlmmFK-H2M-2" value="- uuid: String&#xa;&#xa;" style="text;strokeColor=none;fillColor=none;align=left;verticalAlign=top;spacingLeft=4;spacingRight=4;overflow=hidden;rotatable=0;points=[[0,0.5],[1,0.5]];portConstraint=eastwest;" parent="dTCALStiIMGlmmFK-H2M-1" vertex="1">
          <mxGeometry y="26" width="335" height="24" as="geometry" />
        </mxCell>
        <mxCell id="dTCALStiIMGlmmFK-H2M-10" value="- fullName: String" style="text;strokeColor=none;fillColor=none;align=left;verticalAlign=top;spacingLeft=4;spacingRight=4;overflow=hidden;rotatable=0;points=[[0,0.5],[1,0.5]];portConstraint=eastwest;" parent="dTCALStiIMGlmmFK-H2M-1" vertex="1">
          <mxGeometry y="50" width="335" height="26" as="geometry" />
        </mxCell>
        <mxCell id="dTCALStiIMGlmmFK-H2M-12" value="- header: Map&lt;ContactType, Contact&gt;" style="text;strokeColor=none;fillColor=none;align=left;verticalAlign=top;spacingLeft=4;spacingRight=4;overflow=hidden;rotatable=0;points=[[0,0.5],[1,0.5]];portConstraint=eastwest;" parent="dTCALStiIMGlmmFK-H2M-1" vertex="1">
          <mxGeometry y="76" width="335" height="26" as="geometry" />
        </mxCell>
        <mxCell id="dTCALStiIMGlmmFK-H2M-11" value="- body: Map&lt;SectionType, AbstractSection&lt;POS&gt;&gt;" style="text;strokeColor=none;fillColor=none;align=left;verticalAlign=top;spacingLeft=4;spacingRight=4;overflow=hidden;rotatable=0;points=[[0,0.5],[1,0.5]];portConstraint=eastwest;" parent="dTCALStiIMGlmmFK-H2M-1" vertex="1">
          <mxGeometry y="102" width="335" height="26" as="geometry" />
        </mxCell>
        <mxCell id="dTCALStiIMGlmmFK-H2M-3" value="" style="line;strokeWidth=1;fillColor=none;align=left;verticalAlign=middle;spacingTop=-1;spacingLeft=3;spacingRight=3;rotatable=0;labelPosition=right;points=[];portConstraint=eastwest;" parent="dTCALStiIMGlmmFK-H2M-1" vertex="1">
          <mxGeometry y="128" width="335" height="22" as="geometry" />
        </mxCell>
        <mxCell id="dTCALStiIMGlmmFK-H2M-52" value="&lt;div style=&quot;text-align: center&quot;&gt;&lt;span style=&quot;text-align: left&quot;&gt;Resume(fullName: String)&lt;/span&gt;&lt;br&gt;&lt;/div&gt;" style="text;strokeColor=none;fillColor=none;align=left;verticalAlign=top;spacingLeft=4;spacingRight=4;overflow=hidden;rotatable=0;points=[[0,0.5],[1,0.5]];portConstraint=eastwest;html=1;" parent="dTCALStiIMGlmmFK-H2M-1" vertex="1">
          <mxGeometry y="150" width="335" height="30" as="geometry" />
        </mxCell>
        <mxCell id="dTCALStiIMGlmmFK-H2M-56" value="&lt;div style=&quot;text-align: center&quot;&gt;&lt;span style=&quot;text-align: left&quot;&gt;Resume(uuid: String, fullName: String)&lt;/span&gt;&lt;br&gt;&lt;/div&gt;" style="text;strokeColor=none;fillColor=none;align=left;verticalAlign=top;spacingLeft=4;spacingRight=4;overflow=hidden;rotatable=0;points=[[0,0.5],[1,0.5]];portConstraint=eastwest;html=1;" parent="dTCALStiIMGlmmFK-H2M-1" vertex="1">
          <mxGeometry y="180" width="335" height="30" as="geometry" />
        </mxCell>
        <mxCell id="dTCALStiIMGlmmFK-H2M-69" value="..." style="text;strokeColor=none;fillColor=none;align=left;verticalAlign=top;spacingLeft=4;spacingRight=4;overflow=hidden;rotatable=0;points=[[0,0.5],[1,0.5]];portConstraint=eastwest;fontStyle=1" parent="dTCALStiIMGlmmFK-H2M-1" vertex="1">
          <mxGeometry y="210" width="335" height="26" as="geometry" />
        </mxCell>
        <mxCell id="dTCALStiIMGlmmFK-H2M-5" value="Relation" style="endArrow=open;html=1;endSize=12;startArrow=diamondThin;startSize=14;startFill=0;edgeStyle=orthogonalEdgeStyle;rounded=1;strokeColor=default;strokeWidth=1;entryX=-0.006;entryY=0.06;entryDx=0;entryDy=0;entryPerimeter=0;" parent="WIyWlLk6GJQsqaUBKTNV-1" source="dTCALStiIMGlmmFK-H2M-12" target="dTCALStiIMGlmmFK-H2M-65" edge="1">
          <mxGeometry relative="1" as="geometry">
            <mxPoint x="720" y="110" as="sourcePoint" />
            <mxPoint x="880" y="110" as="targetPoint" />
          </mxGeometry>
        </mxCell>
        <mxCell id="dTCALStiIMGlmmFK-H2M-6" value="1..11" style="edgeLabel;resizable=0;html=1;align=left;verticalAlign=top;" parent="dTCALStiIMGlmmFK-H2M-5" connectable="0" vertex="1">
          <mxGeometry x="-1" relative="1" as="geometry" />
        </mxCell>
        <mxCell id="dTCALStiIMGlmmFK-H2M-7" value="1" style="edgeLabel;resizable=0;html=1;align=right;verticalAlign=top;" parent="dTCALStiIMGlmmFK-H2M-5" connectable="0" vertex="1">
          <mxGeometry x="1" relative="1" as="geometry" />
        </mxCell>
        <mxCell id="dTCALStiIMGlmmFK-H2M-23" value="&lt;span style=&quot;font-weight: normal&quot;&gt;&amp;lt;&amp;lt;enum&amp;gt;&amp;gt;&lt;/span&gt;&lt;br&gt;ContactType" style="swimlane;fontStyle=1;align=center;verticalAlign=top;childLayout=stackLayout;horizontal=1;startSize=40;horizontalStack=0;resizeParent=1;resizeParentMax=0;resizeLast=0;collapsible=1;marginBottom=0;html=1;" parent="WIyWlLk6GJQsqaUBKTNV-1" vertex="1">
          <mxGeometry x="80" y="30" width="241" height="286" as="geometry" />
        </mxCell>
        <mxCell id="dTCALStiIMGlmmFK-H2M-24" value="- title: String" style="text;strokeColor=none;fillColor=none;align=left;verticalAlign=top;spacingLeft=4;spacingRight=4;overflow=hidden;rotatable=0;points=[[0,0.5],[1,0.5]];portConstraint=eastwest;" parent="dTCALStiIMGlmmFK-H2M-23" vertex="1">
          <mxGeometry y="40" width="241" height="26" as="geometry" />
        </mxCell>
        <mxCell id="dTCALStiIMGlmmFK-H2M-32" value="PHONE_DEFAULT&#xa;PHONE_ADD1&#xa;PHONE_ADD2&#xa;MESSENGER_DEFAULT&#xa;MESSENGER_ADD1&#xa;MESSENGER_ADD2&#xa;EMAIL&#xa;NETWORK_DEFAULT&#xa;NETWORK_ADD1&#xa;NETWORK_ADD2&#xa;SITE" style="text;strokeColor=none;fillColor=none;align=left;verticalAlign=top;spacingLeft=4;spacingRight=4;overflow=hidden;rotatable=0;points=[[0,0.5],[1,0.5]];portConstraint=eastwest;" parent="dTCALStiIMGlmmFK-H2M-23" vertex="1">
          <mxGeometry y="66" width="241" height="164" as="geometry" />
        </mxCell>
        <mxCell id="dTCALStiIMGlmmFK-H2M-25" value="" style="line;strokeWidth=1;fillColor=none;align=left;verticalAlign=middle;spacingTop=-1;spacingLeft=3;spacingRight=3;rotatable=0;labelPosition=right;points=[];portConstraint=eastwest;" parent="dTCALStiIMGlmmFK-H2M-23" vertex="1">
          <mxGeometry y="230" width="241" height="8" as="geometry" />
        </mxCell>
        <mxCell id="dTCALStiIMGlmmFK-H2M-35" value="Contact&lt;span&gt;Type(title: String)&lt;/span&gt;" style="text;strokeColor=none;fillColor=none;align=left;verticalAlign=top;spacingLeft=4;spacingRight=4;overflow=hidden;rotatable=0;points=[[0,0.5],[1,0.5]];portConstraint=eastwest;html=1;" parent="dTCALStiIMGlmmFK-H2M-23" vertex="1">
          <mxGeometry y="238" width="241" height="22" as="geometry" />
        </mxCell>
        <mxCell id="dTCALStiIMGlmmFK-H2M-36" value="..." style="text;strokeColor=none;fillColor=none;align=left;verticalAlign=top;spacingLeft=4;spacingRight=4;overflow=hidden;rotatable=0;points=[[0,0.5],[1,0.5]];portConstraint=eastwest;fontStyle=1" parent="dTCALStiIMGlmmFK-H2M-23" vertex="1">
          <mxGeometry y="260" width="241" height="26" as="geometry" />
        </mxCell>
        <mxCell id="dTCALStiIMGlmmFK-H2M-37" value="&lt;span style=&quot;font-weight: normal&quot;&gt;&amp;lt;&amp;lt;enum&amp;gt;&amp;gt;&lt;/span&gt;&lt;br&gt;SectionType" style="swimlane;fontStyle=1;align=center;verticalAlign=top;childLayout=stackLayout;horizontal=1;startSize=40;horizontalStack=0;resizeParent=1;resizeParentMax=0;resizeLast=0;collapsible=1;marginBottom=0;html=1;" parent="WIyWlLk6GJQsqaUBKTNV-1" vertex="1">
          <mxGeometry x="80" y="338" width="240" height="216" as="geometry" />
        </mxCell>
        <mxCell id="dTCALStiIMGlmmFK-H2M-38" value="- title: String" style="text;strokeColor=none;fillColor=none;align=left;verticalAlign=top;spacingLeft=4;spacingRight=4;overflow=hidden;rotatable=0;points=[[0,0.5],[1,0.5]];portConstraint=eastwest;" parent="dTCALStiIMGlmmFK-H2M-37" vertex="1">
          <mxGeometry y="40" width="240" height="26" as="geometry" />
        </mxCell>
        <mxCell id="dTCALStiIMGlmmFK-H2M-39" value="PERSONAL&#xa;OBJECTIVE&#xa;ACHIEVEMENT&#xa;QUALIFICATIONS&#xa;EXPERIENCE&#xa;EDUCATION" style="text;strokeColor=none;fillColor=none;align=left;verticalAlign=top;spacingLeft=4;spacingRight=4;overflow=hidden;rotatable=0;points=[[0,0.5],[1,0.5]];portConstraint=eastwest;" parent="dTCALStiIMGlmmFK-H2M-37" vertex="1">
          <mxGeometry y="66" width="240" height="94" as="geometry" />
        </mxCell>
        <mxCell id="dTCALStiIMGlmmFK-H2M-40" value="" style="line;strokeWidth=1;fillColor=none;align=left;verticalAlign=middle;spacingTop=-1;spacingLeft=3;spacingRight=3;rotatable=0;labelPosition=right;points=[];portConstraint=eastwest;" parent="dTCALStiIMGlmmFK-H2M-37" vertex="1">
          <mxGeometry y="160" width="240" height="8" as="geometry" />
        </mxCell>
        <mxCell id="dTCALStiIMGlmmFK-H2M-42" value="&lt;div style=&quot;text-align: center&quot;&gt;&lt;span style=&quot;text-align: left&quot;&gt;SectionType(title: String)&lt;/span&gt;&lt;br&gt;&lt;/div&gt;" style="text;strokeColor=none;fillColor=none;align=left;verticalAlign=top;spacingLeft=4;spacingRight=4;overflow=hidden;rotatable=0;points=[[0,0.5],[1,0.5]];portConstraint=eastwest;html=1;" parent="dTCALStiIMGlmmFK-H2M-37" vertex="1">
          <mxGeometry y="168" width="240" height="22" as="geometry" />
        </mxCell>
        <mxCell id="dTCALStiIMGlmmFK-H2M-44" value="..." style="text;strokeColor=none;fillColor=none;align=left;verticalAlign=top;spacingLeft=4;spacingRight=4;overflow=hidden;rotatable=0;points=[[0,0.5],[1,0.5]];portConstraint=eastwest;fontStyle=1" parent="dTCALStiIMGlmmFK-H2M-37" vertex="1">
          <mxGeometry y="190" width="240" height="26" as="geometry" />
        </mxCell>
        <mxCell id="dTCALStiIMGlmmFK-H2M-45" value="1" style="endArrow=none;html=1;endSize=12;startArrow=diamondThin;startSize=14;startFill=1;edgeStyle=orthogonalEdgeStyle;align=left;verticalAlign=bottom;rounded=1;strokeColor=default;strokeWidth=1;exitX=0;exitY=0.5;exitDx=0;exitDy=0;endFill=0;" parent="WIyWlLk6GJQsqaUBKTNV-1" source="dTCALStiIMGlmmFK-H2M-11" target="dTCALStiIMGlmmFK-H2M-39" edge="1">
          <mxGeometry x="-1" y="3" relative="1" as="geometry">
            <mxPoint x="365" y="409" as="sourcePoint" />
            <mxPoint x="240" y="510" as="targetPoint" />
            <Array as="points">
              <mxPoint x="340" y="191" />
              <mxPoint x="340" y="451" />
            </Array>
          </mxGeometry>
        </mxCell>
        <mxCell id="dTCALStiIMGlmmFK-H2M-47" value="1" style="endArrow=none;html=1;endSize=12;startArrow=diamondThin;startSize=14;startFill=1;edgeStyle=orthogonalEdgeStyle;align=left;verticalAlign=bottom;rounded=1;strokeColor=default;strokeWidth=1;exitX=0;exitY=0.5;exitDx=0;exitDy=0;entryX=1;entryY=0.5;entryDx=0;entryDy=0;endFill=0;" parent="WIyWlLk6GJQsqaUBKTNV-1" source="dTCALStiIMGlmmFK-H2M-12" target="dTCALStiIMGlmmFK-H2M-32" edge="1">
          <mxGeometry x="-1" y="3" relative="1" as="geometry">
            <mxPoint x="365" y="120" as="sourcePoint" />
            <mxPoint x="310" y="180" as="targetPoint" />
          </mxGeometry>
        </mxCell>
        <mxCell id="dTCALStiIMGlmmFK-H2M-59" value="Relation" style="endArrow=open;html=1;endSize=12;startArrow=diamondThin;startSize=14;startFill=0;edgeStyle=orthogonalEdgeStyle;rounded=1;strokeColor=default;strokeWidth=1;exitX=1;exitY=0.5;exitDx=0;exitDy=0;" parent="WIyWlLk6GJQsqaUBKTNV-1" source="dTCALStiIMGlmmFK-H2M-11" target="dTCALStiIMGlmmFK-H2M-96" edge="1">
          <mxGeometry relative="1" as="geometry">
            <mxPoint x="700" y="180" as="sourcePoint" />
            <mxPoint x="640" y="358" as="targetPoint" />
            <Array as="points">
              <mxPoint x="730" y="191" />
              <mxPoint x="730" y="350" />
              <mxPoint x="538" y="350" />
            </Array>
          </mxGeometry>
        </mxCell>
        <mxCell id="dTCALStiIMGlmmFK-H2M-60" value="6" style="edgeLabel;resizable=0;html=1;align=left;verticalAlign=top;" parent="dTCALStiIMGlmmFK-H2M-59" connectable="0" vertex="1">
          <mxGeometry x="-1" relative="1" as="geometry" />
        </mxCell>
        <mxCell id="dTCALStiIMGlmmFK-H2M-61" value="1" style="edgeLabel;resizable=0;html=1;align=right;verticalAlign=top;" parent="dTCALStiIMGlmmFK-H2M-59" connectable="0" vertex="1">
          <mxGeometry x="1" relative="1" as="geometry" />
        </mxCell>
        <mxCell id="dTCALStiIMGlmmFK-H2M-65" value="Contact" style="swimlane;fontStyle=1;align=center;verticalAlign=top;childLayout=stackLayout;horizontal=1;startSize=26;horizontalStack=0;resizeParent=1;resizeParentMax=0;resizeLast=0;collapsible=1;marginBottom=0;strokeColor=default;html=1;" parent="WIyWlLk6GJQsqaUBKTNV-1" vertex="1">
          <mxGeometry x="761" y="30" width="270" height="138" as="geometry" />
        </mxCell>
        <mxCell id="dTCALStiIMGlmmFK-H2M-70" value="- value: String" style="text;strokeColor=none;fillColor=none;align=left;verticalAlign=top;spacingLeft=4;spacingRight=4;overflow=hidden;rotatable=0;points=[[0,0.5],[1,0.5]];portConstraint=eastwest;html=1;" parent="dTCALStiIMGlmmFK-H2M-65" vertex="1">
          <mxGeometry y="26" width="270" height="26" as="geometry" />
        </mxCell>
        <mxCell id="dTCALStiIMGlmmFK-H2M-71" value="- url: String" style="text;strokeColor=none;fillColor=none;align=left;verticalAlign=top;spacingLeft=4;spacingRight=4;overflow=hidden;rotatable=0;points=[[0,0.5],[1,0.5]];portConstraint=eastwest;html=1;" parent="dTCALStiIMGlmmFK-H2M-65" vertex="1">
          <mxGeometry y="52" width="270" height="26" as="geometry" />
        </mxCell>
        <mxCell id="dTCALStiIMGlmmFK-H2M-67" value="" style="line;strokeWidth=1;fillColor=none;align=left;verticalAlign=middle;spacingTop=-1;spacingLeft=3;spacingRight=3;rotatable=0;labelPosition=right;points=[];portConstraint=eastwest;html=1;" parent="dTCALStiIMGlmmFK-H2M-65" vertex="1">
          <mxGeometry y="78" width="270" height="8" as="geometry" />
        </mxCell>
        <mxCell id="dTCALStiIMGlmmFK-H2M-68" value="Contact(name: String, value: String, url: String)" style="text;strokeColor=none;fillColor=none;align=left;verticalAlign=top;spacingLeft=4;spacingRight=4;overflow=hidden;rotatable=0;points=[[0,0.5],[1,0.5]];portConstraint=eastwest;html=1;" parent="dTCALStiIMGlmmFK-H2M-65" vertex="1">
          <mxGeometry y="86" width="270" height="26" as="geometry" />
        </mxCell>
        <mxCell id="dTCALStiIMGlmmFK-H2M-75" value="&lt;b&gt;...&lt;/b&gt;" style="text;strokeColor=none;fillColor=none;align=left;verticalAlign=top;spacingLeft=4;spacingRight=4;overflow=hidden;rotatable=0;points=[[0,0.5],[1,0.5]];portConstraint=eastwest;html=1;" parent="dTCALStiIMGlmmFK-H2M-65" vertex="1">
          <mxGeometry y="112" width="270" height="26" as="geometry" />
        </mxCell>
        <mxCell id="dTCALStiIMGlmmFK-H2M-82" value="SectionText" style="swimlane;fontStyle=1;align=center;verticalAlign=top;childLayout=stackLayout;horizontal=1;startSize=26;horizontalStack=0;resizeParent=1;resizeParentMax=0;resizeLast=0;collapsible=1;marginBottom=0;strokeColor=default;html=1;" parent="WIyWlLk6GJQsqaUBKTNV-1" vertex="1">
          <mxGeometry x="360" y="582" width="161" height="86" as="geometry" />
        </mxCell>
        <mxCell id="dTCALStiIMGlmmFK-H2M-86" value="# listPosition: List&amp;lt;String&amp;gt;" style="text;strokeColor=none;fillColor=none;align=left;verticalAlign=top;spacingLeft=4;spacingRight=4;overflow=hidden;rotatable=0;points=[[0,0.5],[1,0.5]];portConstraint=eastwest;html=1;" parent="dTCALStiIMGlmmFK-H2M-82" vertex="1">
          <mxGeometry y="26" width="161" height="26" as="geometry" />
        </mxCell>
        <mxCell id="dTCALStiIMGlmmFK-H2M-84" value="" style="line;strokeWidth=1;fillColor=none;align=left;verticalAlign=middle;spacingTop=-1;spacingLeft=3;spacingRight=3;rotatable=0;labelPosition=right;points=[];portConstraint=eastwest;html=1;" parent="dTCALStiIMGlmmFK-H2M-82" vertex="1">
          <mxGeometry y="52" width="161" height="8" as="geometry" />
        </mxCell>
        <mxCell id="dTCALStiIMGlmmFK-H2M-87" value="&lt;b&gt;...&lt;/b&gt;" style="text;strokeColor=none;fillColor=none;align=left;verticalAlign=top;spacingLeft=4;spacingRight=4;overflow=hidden;rotatable=0;points=[[0,0.5],[1,0.5]];portConstraint=eastwest;html=1;" parent="dTCALStiIMGlmmFK-H2M-82" vertex="1">
          <mxGeometry y="60" width="161" height="26" as="geometry" />
        </mxCell>
        <mxCell id="dTCALStiIMGlmmFK-H2M-96" value="&lt;i&gt;AbstractSection&amp;lt;POS&amp;gt;&lt;/i&gt;" style="swimlane;fontStyle=1;align=center;verticalAlign=top;childLayout=stackLayout;horizontal=1;startSize=26;horizontalStack=0;resizeParent=1;resizeParentMax=0;resizeLast=0;collapsible=1;marginBottom=0;strokeColor=default;html=1;" parent="WIyWlLk6GJQsqaUBKTNV-1" vertex="1">
          <mxGeometry x="417.5" y="392" width="230" height="112" as="geometry" />
        </mxCell>
        <mxCell id="dTCALStiIMGlmmFK-H2M-97" value="# blockPosition: String" style="text;strokeColor=none;fillColor=none;align=left;verticalAlign=top;spacingLeft=4;spacingRight=4;overflow=hidden;rotatable=0;points=[[0,0.5],[1,0.5]];portConstraint=eastwest;html=1;" parent="dTCALStiIMGlmmFK-H2M-96" vertex="1">
          <mxGeometry y="26" width="230" height="26" as="geometry" />
        </mxCell>
        <mxCell id="dTCALStiIMGlmmFK-H2M-98" value="&lt;i&gt;# listPosition: List&amp;lt;POS&amp;gt;&lt;/i&gt;" style="text;strokeColor=none;fillColor=none;align=left;verticalAlign=top;spacingLeft=4;spacingRight=4;overflow=hidden;rotatable=0;points=[[0,0.5],[1,0.5]];portConstraint=eastwest;html=1;" parent="dTCALStiIMGlmmFK-H2M-96" vertex="1">
          <mxGeometry y="52" width="230" height="26" as="geometry" />
        </mxCell>
        <mxCell id="dTCALStiIMGlmmFK-H2M-99" value="" style="line;strokeWidth=1;fillColor=none;align=left;verticalAlign=middle;spacingTop=-1;spacingLeft=3;spacingRight=3;rotatable=0;labelPosition=right;points=[];portConstraint=eastwest;html=1;" parent="dTCALStiIMGlmmFK-H2M-96" vertex="1">
          <mxGeometry y="78" width="230" height="8" as="geometry" />
        </mxCell>
        <mxCell id="dTCALStiIMGlmmFK-H2M-103" value="&lt;b&gt;...&lt;/b&gt;" style="text;strokeColor=none;fillColor=none;align=left;verticalAlign=top;spacingLeft=4;spacingRight=4;overflow=hidden;rotatable=0;points=[[0,0.5],[1,0.5]];portConstraint=eastwest;html=1;" parent="dTCALStiIMGlmmFK-H2M-96" vertex="1">
          <mxGeometry y="86" width="230" height="26" as="geometry" />
        </mxCell>
        <mxCell id="dTCALStiIMGlmmFK-H2M-104" value="SectionCompany" style="swimlane;fontStyle=1;align=center;verticalAlign=top;childLayout=stackLayout;horizontal=1;startSize=26;horizontalStack=0;resizeParent=1;resizeParentMax=0;resizeLast=0;collapsible=1;marginBottom=0;strokeColor=default;html=1;" parent="WIyWlLk6GJQsqaUBKTNV-1" vertex="1">
          <mxGeometry x="560" y="582" width="172.5" height="86" as="geometry" />
        </mxCell>
        <mxCell id="dTCALStiIMGlmmFK-H2M-105" value="# listPosition: List&amp;lt;Company&amp;gt;" style="text;strokeColor=none;fillColor=none;align=left;verticalAlign=top;spacingLeft=4;spacingRight=4;overflow=hidden;rotatable=0;points=[[0,0.5],[1,0.5]];portConstraint=eastwest;html=1;" parent="dTCALStiIMGlmmFK-H2M-104" vertex="1">
          <mxGeometry y="26" width="172.5" height="26" as="geometry" />
        </mxCell>
        <mxCell id="dTCALStiIMGlmmFK-H2M-106" value="" style="line;strokeWidth=1;fillColor=none;align=left;verticalAlign=middle;spacingTop=-1;spacingLeft=3;spacingRight=3;rotatable=0;labelPosition=right;points=[];portConstraint=eastwest;html=1;" parent="dTCALStiIMGlmmFK-H2M-104" vertex="1">
          <mxGeometry y="52" width="172.5" height="8" as="geometry" />
        </mxCell>
        <mxCell id="dTCALStiIMGlmmFK-H2M-108" value="&lt;b&gt;...&lt;/b&gt;" style="text;strokeColor=none;fillColor=none;align=left;verticalAlign=top;spacingLeft=4;spacingRight=4;overflow=hidden;rotatable=0;points=[[0,0.5],[1,0.5]];portConstraint=eastwest;html=1;" parent="dTCALStiIMGlmmFK-H2M-104" vertex="1">
          <mxGeometry y="60" width="172.5" height="26" as="geometry" />
        </mxCell>
        <mxCell id="dTCALStiIMGlmmFK-H2M-110" value="Company" style="swimlane;fontStyle=1;align=center;verticalAlign=top;childLayout=stackLayout;horizontal=1;startSize=26;horizontalStack=0;resizeParent=1;resizeParentMax=0;resizeLast=0;collapsible=1;marginBottom=0;strokeColor=default;html=1;" parent="WIyWlLk6GJQsqaUBKTNV-1" vertex="1">
          <mxGeometry x="791" y="216" width="238.5" height="160" as="geometry" />
        </mxCell>
        <mxCell id="dTCALStiIMGlmmFK-H2M-111" value="- companyName: Contact" style="text;strokeColor=none;fillColor=none;align=left;verticalAlign=top;spacingLeft=4;spacingRight=4;overflow=hidden;rotatable=0;points=[[0,0.5],[1,0.5]];portConstraint=eastwest;html=1;" parent="dTCALStiIMGlmmFK-H2M-110" vertex="1">
          <mxGeometry y="26" width="238.5" height="26" as="geometry" />
        </mxCell>
        <mxCell id="dTCALStiIMGlmmFK-H2M-118" value="- experience: Set&amp;lt;Experience&amp;gt;" style="text;strokeColor=none;fillColor=none;align=left;verticalAlign=top;spacingLeft=4;spacingRight=4;overflow=hidden;rotatable=0;points=[[0,0.5],[1,0.5]];portConstraint=eastwest;html=1;" parent="dTCALStiIMGlmmFK-H2M-110" vertex="1">
          <mxGeometry y="52" width="238.5" height="26" as="geometry" />
        </mxCell>
        <mxCell id="dTCALStiIMGlmmFK-H2M-112" value="" style="line;strokeWidth=1;fillColor=none;align=left;verticalAlign=middle;spacingTop=-1;spacingLeft=3;spacingRight=3;rotatable=0;labelPosition=right;points=[];portConstraint=eastwest;html=1;" parent="dTCALStiIMGlmmFK-H2M-110" vertex="1">
          <mxGeometry y="78" width="238.5" height="8" as="geometry" />
        </mxCell>
        <mxCell id="dTCALStiIMGlmmFK-H2M-113" value="Company(companyName: Contact,&lt;br&gt;&lt;span style=&quot;white-space: pre&quot;&gt;	&lt;/span&gt;&lt;span style=&quot;white-space: pre&quot;&gt;	&lt;/span&gt;experience: Set&amp;lt;Experience&amp;gt;)" style="text;strokeColor=none;fillColor=none;align=left;verticalAlign=top;spacingLeft=4;spacingRight=4;overflow=hidden;rotatable=0;points=[[0,0.5],[1,0.5]];portConstraint=eastwest;html=1;" parent="dTCALStiIMGlmmFK-H2M-110" vertex="1">
          <mxGeometry y="86" width="238.5" height="44" as="geometry" />
        </mxCell>
        <mxCell id="Jql5WIMoICSw8YWrxN4U-17" value="&lt;b&gt;...&lt;/b&gt;" style="text;strokeColor=none;fillColor=none;align=left;verticalAlign=top;spacingLeft=4;spacingRight=4;overflow=hidden;rotatable=0;points=[[0,0.5],[1,0.5]];portConstraint=eastwest;html=1;" parent="dTCALStiIMGlmmFK-H2M-110" vertex="1">
          <mxGeometry y="130" width="238.5" height="30" as="geometry" />
        </mxCell>
        <mxCell id="dTCALStiIMGlmmFK-H2M-116" value="" style="endArrow=block;endFill=1;html=1;edgeStyle=orthogonalEdgeStyle;align=left;verticalAlign=top;rounded=1;strokeColor=default;strokeWidth=1;exitX=1;exitY=0.5;exitDx=0;exitDy=0;" parent="WIyWlLk6GJQsqaUBKTNV-1" source="dTCALStiIMGlmmFK-H2M-111" target="dTCALStiIMGlmmFK-H2M-65" edge="1">
          <mxGeometry x="-1" relative="1" as="geometry">
            <mxPoint x="1020" y="240" as="sourcePoint" />
            <mxPoint x="1190" y="250" as="targetPoint" />
            <Array as="points">
              <mxPoint x="1060" y="255" />
              <mxPoint x="1060" y="40" />
            </Array>
          </mxGeometry>
        </mxCell>
        <mxCell id="dTCALStiIMGlmmFK-H2M-117" value="1" style="edgeLabel;resizable=0;html=1;align=left;verticalAlign=bottom;strokeColor=default;" parent="dTCALStiIMGlmmFK-H2M-116" connectable="0" vertex="1">
          <mxGeometry x="-1" relative="1" as="geometry" />
        </mxCell>
        <mxCell id="dTCALStiIMGlmmFK-H2M-119" value="Relation" style="endArrow=open;html=1;endSize=12;startArrow=diamondThin;startSize=14;startFill=0;edgeStyle=orthogonalEdgeStyle;rounded=1;strokeColor=default;strokeWidth=1;" parent="WIyWlLk6GJQsqaUBKTNV-1" source="dTCALStiIMGlmmFK-H2M-104" edge="1" target="dTCALStiIMGlmmFK-H2M-110">
          <mxGeometry x="0.681" relative="1" as="geometry">
            <mxPoint x="1050" y="609" as="sourcePoint" />
            <mxPoint x="851" y="216" as="targetPoint" />
            <Array as="points">
              <mxPoint x="760" y="590" />
              <mxPoint x="760" y="230" />
            </Array>
            <mxPoint x="1" as="offset" />
          </mxGeometry>
        </mxCell>
        <mxCell id="dTCALStiIMGlmmFK-H2M-120" value="1..*" style="edgeLabel;resizable=0;html=1;align=left;verticalAlign=top;" parent="dTCALStiIMGlmmFK-H2M-119" connectable="0" vertex="1">
          <mxGeometry x="-1" relative="1" as="geometry" />
        </mxCell>
        <mxCell id="dTCALStiIMGlmmFK-H2M-121" value="1" style="edgeLabel;resizable=0;html=1;align=right;verticalAlign=top;" parent="dTCALStiIMGlmmFK-H2M-119" connectable="0" vertex="1">
          <mxGeometry x="1" relative="1" as="geometry">
            <mxPoint x="-11" y="-30" as="offset" />
          </mxGeometry>
        </mxCell>
        <mxCell id="Jql5WIMoICSw8YWrxN4U-2" value="Experience" style="swimlane;fontStyle=1;align=center;verticalAlign=top;childLayout=stackLayout;horizontal=1;startSize=26;horizontalStack=0;resizeParent=1;resizeParentMax=0;resizeLast=0;collapsible=1;marginBottom=0;strokeColor=default;html=1;" parent="WIyWlLk6GJQsqaUBKTNV-1" vertex="1">
          <mxGeometry x="791" y="404" width="238.5" height="264" as="geometry" />
        </mxCell>
        <mxCell id="Jql5WIMoICSw8YWrxN4U-4" value="- dateFrom: LocalDate" style="text;strokeColor=none;fillColor=none;align=left;verticalAlign=top;spacingLeft=4;spacingRight=4;overflow=hidden;rotatable=0;points=[[0,0.5],[1,0.5]];portConstraint=eastwest;html=1;" parent="Jql5WIMoICSw8YWrxN4U-2" vertex="1">
          <mxGeometry y="26" width="238.5" height="26" as="geometry" />
        </mxCell>
        <mxCell id="Jql5WIMoICSw8YWrxN4U-5" value="- dateTo: LocalDate" style="text;strokeColor=none;fillColor=none;align=left;verticalAlign=top;spacingLeft=4;spacingRight=4;overflow=hidden;rotatable=0;points=[[0,0.5],[1,0.5]];portConstraint=eastwest;html=1;" parent="Jql5WIMoICSw8YWrxN4U-2" vertex="1">
          <mxGeometry y="52" width="238.5" height="26" as="geometry" />
        </mxCell>
        <mxCell id="Jql5WIMoICSw8YWrxN4U-6" value="- positionTitle: String" style="text;strokeColor=none;fillColor=none;align=left;verticalAlign=top;spacingLeft=4;spacingRight=4;overflow=hidden;rotatable=0;points=[[0,0.5],[1,0.5]];portConstraint=eastwest;html=1;" parent="Jql5WIMoICSw8YWrxN4U-2" vertex="1">
          <mxGeometry y="78" width="238.5" height="26" as="geometry" />
        </mxCell>
        <mxCell id="Jql5WIMoICSw8YWrxN4U-7" value="- positionText: String" style="text;strokeColor=none;fillColor=none;align=left;verticalAlign=top;spacingLeft=4;spacingRight=4;overflow=hidden;rotatable=0;points=[[0,0.5],[1,0.5]];portConstraint=eastwest;html=1;" parent="Jql5WIMoICSw8YWrxN4U-2" vertex="1">
          <mxGeometry y="104" width="238.5" height="26" as="geometry" />
        </mxCell>
        <mxCell id="Jql5WIMoICSw8YWrxN4U-8" value="" style="line;strokeWidth=1;fillColor=none;align=left;verticalAlign=middle;spacingTop=-1;spacingLeft=3;spacingRight=3;rotatable=0;labelPosition=right;points=[];portConstraint=eastwest;html=1;" parent="Jql5WIMoICSw8YWrxN4U-2" vertex="1">
          <mxGeometry y="130" width="238.5" height="8" as="geometry" />
        </mxCell>
        <mxCell id="Jql5WIMoICSw8YWrxN4U-9" value="Company(dateFrom: LocalDate,&lt;br&gt;&lt;span&gt;	&lt;/span&gt;&lt;span&gt;	&lt;/span&gt;&lt;span&gt;	&lt;/span&gt;&lt;span&gt;	&lt;/span&gt;&lt;span style=&quot;white-space: pre&quot;&gt;	&lt;/span&gt;&lt;span style=&quot;white-space: pre&quot;&gt;	&lt;/span&gt;dateTo: LocalDate,&lt;br&gt;&lt;span&gt;	&lt;/span&gt;&lt;span&gt;	&lt;/span&gt;&lt;span&gt;	&lt;/span&gt;&lt;span&gt;	&lt;/span&gt;&lt;span style=&quot;white-space: pre&quot;&gt;	&lt;/span&gt;&lt;span style=&quot;white-space: pre&quot;&gt;	&lt;/span&gt;positionTitle: String&lt;br&gt;&lt;span&gt;	&lt;/span&gt;&lt;span&gt;	&lt;/span&gt;&lt;span style=&quot;white-space: pre&quot;&gt;	&lt;/span&gt;&lt;span style=&quot;white-space: pre&quot;&gt;	&lt;/span&gt;positionText: String)" style="text;strokeColor=none;fillColor=none;align=left;verticalAlign=top;spacingLeft=4;spacingRight=4;overflow=hidden;rotatable=0;points=[[0,0.5],[1,0.5]];portConstraint=eastwest;html=1;" parent="Jql5WIMoICSw8YWrxN4U-2" vertex="1">
          <mxGeometry y="138" width="238.5" height="66" as="geometry" />
        </mxCell>
        <mxCell id="dTCALStiIMGlmmFK-H2M-131" value="+ getPeriod(): String" style="text;strokeColor=none;fillColor=none;align=left;verticalAlign=top;spacingLeft=4;spacingRight=4;overflow=hidden;rotatable=0;points=[[0,0.5],[1,0.5]];portConstraint=eastwest;html=1;" parent="Jql5WIMoICSw8YWrxN4U-2" vertex="1">
          <mxGeometry y="204" width="238.5" height="30" as="geometry" />
        </mxCell>
        <mxCell id="Jql5WIMoICSw8YWrxN4U-18" value="&lt;b&gt;...&lt;/b&gt;" style="text;strokeColor=none;fillColor=none;align=left;verticalAlign=top;spacingLeft=4;spacingRight=4;overflow=hidden;rotatable=0;points=[[0,0.5],[1,0.5]];portConstraint=eastwest;html=1;" parent="Jql5WIMoICSw8YWrxN4U-2" vertex="1">
          <mxGeometry y="234" width="238.5" height="30" as="geometry" />
        </mxCell>
        <mxCell id="Jql5WIMoICSw8YWrxN4U-11" value="Relation" style="endArrow=open;html=1;endSize=12;startArrow=diamondThin;startSize=14;startFill=0;edgeStyle=orthogonalEdgeStyle;rounded=1;strokeColor=default;strokeWidth=1;exitX=1;exitY=0.5;exitDx=0;exitDy=0;entryX=1.007;entryY=0.052;entryDx=0;entryDy=0;entryPerimeter=0;" parent="WIyWlLk6GJQsqaUBKTNV-1" source="dTCALStiIMGlmmFK-H2M-118" target="Jql5WIMoICSw8YWrxN4U-2" edge="1">
          <mxGeometry relative="1" as="geometry">
            <mxPoint x="1029.5" y="286.72" as="sourcePoint" />
            <mxPoint x="1020" y="417" as="targetPoint" />
            <Array as="points">
              <mxPoint x="1060" y="281" />
              <mxPoint x="1060" y="418" />
            </Array>
          </mxGeometry>
        </mxCell>
        <mxCell id="Jql5WIMoICSw8YWrxN4U-12" value="1..*" style="edgeLabel;resizable=0;html=1;align=left;verticalAlign=top;" parent="Jql5WIMoICSw8YWrxN4U-11" connectable="0" vertex="1">
          <mxGeometry x="-1" relative="1" as="geometry" />
        </mxCell>
        <mxCell id="Jql5WIMoICSw8YWrxN4U-13" value="1" style="edgeLabel;resizable=0;html=1;align=right;verticalAlign=top;" parent="Jql5WIMoICSw8YWrxN4U-11" connectable="0" vertex="1">
          <mxGeometry x="1" relative="1" as="geometry">
            <mxPoint x="9" as="offset" />
          </mxGeometry>
        </mxCell>
        <mxCell id="RB9GQx9-vvJhAbWEmLm_-0" value="Extends" style="endArrow=block;endSize=16;endFill=0;html=1;rounded=0;entryX=0.293;entryY=1.038;entryDx=0;entryDy=0;entryPerimeter=0;exitX=0.5;exitY=0;exitDx=0;exitDy=0;" edge="1" parent="WIyWlLk6GJQsqaUBKTNV-1" source="dTCALStiIMGlmmFK-H2M-82" target="dTCALStiIMGlmmFK-H2M-103">
          <mxGeometry width="160" relative="1" as="geometry">
            <mxPoint x="380" y="500" as="sourcePoint" />
            <mxPoint x="540" y="500" as="targetPoint" />
          </mxGeometry>
        </mxCell>
        <mxCell id="RB9GQx9-vvJhAbWEmLm_-1" value="Extends" style="endArrow=block;endSize=16;endFill=0;html=1;rounded=0;exitX=0.5;exitY=0;exitDx=0;exitDy=0;entryX=0.685;entryY=1.062;entryDx=0;entryDy=0;entryPerimeter=0;" edge="1" parent="WIyWlLk6GJQsqaUBKTNV-1" source="dTCALStiIMGlmmFK-H2M-104" target="dTCALStiIMGlmmFK-H2M-103">
          <mxGeometry width="160" relative="1" as="geometry">
            <mxPoint x="331.48199999999997" y="596.9860000000001" as="sourcePoint" />
            <mxPoint x="499.8900000000001" y="469.98800000000006" as="targetPoint" />
          </mxGeometry>
        </mxCell>
      </root>
    </mxGraphModel>
  </diagram>
</mxfile>
